<?xml version="1.0" encoding="UTF-8" standalone="no"?>
<!-- Created with Inkscape (http://www.inkscape.org/) -->
<svg
   xmlns:dc="http://purl.org/dc/elements/1.1/"
   xmlns:cc="http://web.resource.org/cc/"
   xmlns:rdf="http://www.w3.org/1999/02/22-rdf-syntax-ns#"
   xmlns:svg="http://www.w3.org/2000/svg"
   xmlns="http://www.w3.org/2000/svg"
   xmlns:xlink="http://www.w3.org/1999/xlink"
   xmlns:sodipodi="http://sodipodi.sourceforge.net/DTD/sodipodi-0.dtd"
   xmlns:inkscape="http://www.inkscape.org/namespaces/inkscape"
   id="svg2"
   sodipodi:version="0.32"
   inkscape:version="0.45.1"
   width="210mm"
   height="297mm"
   sodipodi:docbase="/home/aecoope/perl"
   sodipodi:docname="mtn-browse.svg"
   inkscape:export-filename="/home/aecoope/perl/mtn-browse-large.png"
   inkscape:export-xdpi="79.099998"
   inkscape:export-ydpi="79.099998"
   inkscape:output_extension="org.inkscape.output.svg.inkscape">
  <metadata
     id="metadata7">
    <rdf:RDF>
      <cc:Work
         rdf:about="">
        <dc:format>image/svg+xml</dc:format>
        <dc:type
           rdf:resource="http://purl.org/dc/dcmitype/StillImage" />
        <dc:title>Monotone Logo</dc:title>
        <dc:date>May 20 2006</dc:date>
        <dc:creator>
          <cc:Agent>
            <dc:title>Graydon Hoare</dc:title>
          </cc:Agent>
        </dc:creator>
        <dc:rights>
          <cc:Agent>
            <dc:title />
          </cc:Agent>
        </dc:rights>
        <dc:source>http://mkweb.bcgsc.ca/rat/images/raton3700</dc:source>
        <dc:relation />
        <dc:description>This is a derivative work of an image under not-completely-clear license, but it is published with a statement permitting &quot;unrestricted&quot; use, distribution and modification.</dc:description>
        <cc:license
           rdf:resource="http://web.resource.org/cc/PublicDomain" />
      </cc:Work>
      <cc:License
         rdf:about="http://web.resource.org/cc/PublicDomain">
        <cc:permits
           rdf:resource="http://web.resource.org/cc/Reproduction" />
        <cc:permits
           rdf:resource="http://web.resource.org/cc/Distribution" />
        <cc:permits
           rdf:resource="http://web.resource.org/cc/DerivativeWorks" />
      </cc:License>
    </rdf:RDF>
  </metadata>
  <defs
     id="defs5">
    <linearGradient
       inkscape:collect="always"
       id="linearGradient4191">
      <stop
         style="stop-color:#000000;stop-opacity:1;"
         offset="0"
         id="stop4193" />
      <stop
         style="stop-color:#000000;stop-opacity:0;"
         offset="1"
         id="stop4195" />
    </linearGradient>
    <linearGradient
       inkscape:collect="always"
       xlink:href="#linearGradient4191"
       id="linearGradient4226"
       gradientUnits="userSpaceOnUse"
       x1="350.71558"
       y1="336.3714"
       x2="358.85184"
       y2="327.80692" />
    <linearGradient
       inkscape:collect="always"
       xlink:href="#linearGradient1045"
       id="linearGradient4224"
       gradientUnits="userSpaceOnUse"
       gradientTransform="matrix(1.0181639,-3.179448e-2,3.0640305e-2,0.9812034,248.50031,191.28893)"
       x1="110.05048"
       y1="138.23856"
       x2="103.6906"
       y2="145.33636" />
    <linearGradient
       inkscape:collect="always"
       xlink:href="#linearGradient1045"
       id="linearGradient4222"
       gradientUnits="userSpaceOnUse"
       gradientTransform="matrix(1.1879329,-3.5264444e-2,2.5189423e-2,0.7668232,265.95849,191.03645)"
       x1="42.497837"
       y1="103.57257"
       x2="54.32185"
       y2="167.94406" />
    <linearGradient
       id="linearGradient1045">
      <stop
         id="stop1046"
         offset="0.00000000"
         style="stop-color:#ffffff;stop-opacity:0.74901962;" />
      <stop
         id="stop1047"
         offset="1.0000000"
         style="stop-color:#ffffff;stop-opacity:0.00000000;" />
    </linearGradient>
    <linearGradient
       inkscape:collect="always"
       xlink:href="#linearGradient1045"
       id="linearGradient4220"
       gradientUnits="userSpaceOnUse"
       gradientTransform="matrix(1.1481635,-3.4083868e-2,3.0664026e-2,0.9334827,252.4323,191.06145)"
       x1="57.667629"
       y1="84.017433"
       x2="60.490723"
       y2="111.23763" />
    <linearGradient
       id="linearGradient1439">
      <stop
         id="stop1440"
         offset="0"
         style="stop-color:#ffffff;stop-opacity:0.5704698;" />
      <stop
         id="stop1441"
         offset="1"
         style="stop-color:#96b0c6;stop-opacity:0.89932889;" />
    </linearGradient>
    <radialGradient
       inkscape:collect="always"
       xlink:href="#linearGradient1439"
       id="radialGradient4218"
       gradientUnits="userSpaceOnUse"
       gradientTransform="matrix(1.1767241,-6.5705921e-2,6.2291944e-2,1.0081481,242.27164,193.29801)"
       cx="61.56411"
       cy="105.93911"
       fx="69.98687"
       fy="90.41909"
       r="27.959114" />
    <filter
       inkscape:collect="always"
       id="filter4141">
      <feGaussianBlur
         inkscape:collect="always"
         stdDeviation="1.0889941"
         id="feGaussianBlur4143" />
    </filter>
    <linearGradient
       inkscape:collect="always"
       id="linearGradient4145">
      <stop
         style="stop-color:#000000;stop-opacity:1;"
         offset="0"
         id="stop4147" />
      <stop
         style="stop-color:#000000;stop-opacity:0;"
         offset="1"
         id="stop4149" />
    </linearGradient>
    <linearGradient
       inkscape:collect="always"
       xlink:href="#linearGradient4145"
       id="linearGradient4216"
       gradientUnits="userSpaceOnUse"
       gradientTransform="translate(-15.844294,-42.822415)"
       x1="427.79593"
       y1="418.59042"
       x2="308.88391"
       y2="339.36896" />
  </defs>
  <sodipodi:namedview
     id="base"
     pagecolor="#ffffff"
     bordercolor="#666666"
     borderopacity="1.0"
     inkscape:pageopacity="0.0"
     inkscape:pageshadow="2"
     inkscape:window-width="745"
     inkscape:window-height="723"
     inkscape:zoom="0.9729451"
     inkscape:cx="345.42022"
     inkscape:cy="584.29598"
     inkscape:window-x="527"
     inkscape:window-y="0"
     inkscape:current-layer="layer1" />
  <g
     inkscape:groupmode="layer"
     id="layer1"
     inkscape:label="Bounding Box"
     style="display:inline">
    <rect
       style="fill:none;fill-opacity:0.49397589;stroke:none;stroke-width:1;stroke-linecap:butt;stroke-miterlimit:4;stroke-dasharray:none;stroke-dashoffset:0;stroke-opacity:1"
       id="rect2247"
       width="248.7296"
       height="271.34106"
       x="214.81171"
       y="298.97949"
       rx="0"
       ry="0"
       inkscape:export-filename="/home/aecoope/perl/mtn-browse-large.png"
       inkscape:export-xdpi="108.55"
       inkscape:export-ydpi="108.55" />
  </g>
  <g
     inkscape:groupmode="layer"
     id="layer2"
     inkscape:label="Logo"
     style="display:inline">
    <path
       style="fill:#9077a1;fill-opacity:1;fill-rule:evenodd;stroke:#000000;stroke-width:0.3961187px;stroke-linecap:butt;stroke-linejoin:miter;stroke-opacity:1"
       d="M 338.97008,528.95249 C 345.11392,528.1264 364.89031,509.40546 367.68611,506.50975 C 370.58334,503.50898 385.03537,485.10603 394.40797,484.89822 C 403.58115,484.69042 408.76598,486.76845 411.95665,482.40459 C 414.78838,478.53164 424.82429,465.75532 427.11233,462.03988 C 429.73181,457.78623 432.64691,451.64345 433.89251,441.25956 C 435.089,431.28501 436.2855,416.53098 434.29134,409.25787 C 432.34979,402.17667 423.92166,384.73709 417.14149,373.93133 C 410.23946,362.93135 391.61613,336.11115 380.04996,325.30539 C 368.70315,314.70459 353.63315,304.21533 337.94566,304.30609 C 322.26104,304.39682 308.69881,309.49146 300.73874,315.71691 C 293.03142,321.74468 261.99518,361.46314 254.81617,376.42497 C 247.55564,391.5567 246.45659,415.49129 246.8395,425.46652 C 247.23833,435.85668 247.61936,452.0881 250.42901,461.62427 C 253.12654,470.77991 271.0657,506.32255 274.35903,512.32824 C 277.54969,518.14673 283.19193,528.38492 286.32404,529.7837 C 289.11587,531.03053 295.75504,531.12705 298.94571,530.29583 C 301.76257,529.562 303.73171,526.23629 303.47389,524.38083 C 303.19605,522.38133 285.12754,494.87277 283.5322,491.54792 C 281.84952,488.04104 352.53043,486.56064 352.53043,490.30111 C 352.53043,493.62596 331.56873,519.179 328.99925,522.3028 C 326.60623,525.21204 332.78816,529.7837 338.97008,528.95249 z "
       id="path1298"
       sodipodi:nodetypes="czzzzzzzzzzzzzzzzzzzzz"
       inkscape:export-filename="/home/aecoope/perl/mtn-browse-large.png"
       inkscape:export-xdpi="108.55"
       inkscape:export-ydpi="108.55" />
    <path
       sodipodi:nodetypes="czzzzzzzzzzzzz"
       style="fill:#b193c5;fill-opacity:1;fill-rule:evenodd;stroke:#000000;stroke-width:0.3961187px;stroke-linecap:butt;stroke-linejoin:miter;stroke-opacity:1"
       d="M 269.97185,414.24515 C 266.58177,429.83038 263.59052,453.72775 269.17419,464.53351 C 274.75787,475.33927 284.32986,489.88549 291.90771,499.44444 C 299.48555,509.00339 300.68205,517.73112 309.85522,520.22476 C 319.02839,522.7184 323.01674,524.79643 329.7969,520.22476 C 336.57709,515.65309 340.92871,508.37422 344.38855,503.18491 C 347.57922,498.39931 350.88691,491.2775 353.79536,486.20412 C 356.56661,481.37005 366.00001,470.96578 368.41536,467.54361 C 371.01364,463.86223 373.97068,434.79424 373.66861,429.20698 C 373.33488,423.03373 373.66861,418.40121 370.87678,410.50469 C 368.08494,402.60817 355.64438,384.93013 349.73859,377.67179 C 343.57573,370.09747 335.44557,359.14165 318.23074,359.38511 C 301.86195,359.62856 285.52637,376.42496 281.53803,383.49028 C 277.54969,390.55559 273.36194,398.65991 269.97185,414.24515 z "
       id="path1302"
       inkscape:export-filename="/home/aecoope/perl/mtn-browse-large.png"
       inkscape:export-xdpi="108.55"
       inkscape:export-ydpi="108.55" />
    <g
       style="fill:#d08cab;fill-opacity:1"
       id="g2079"
       transform="matrix(0.388043,0,0,0.404362,214.135,219.3712)"
       inkscape:export-filename="/home/aecoope/perl/mtn-browse-large.png"
       inkscape:export-xdpi="108.55"
       inkscape:export-ydpi="108.55">
      <path
         sodipodi:nodetypes="czzzzzzzzzz"
         style="fill-rule:evenodd;stroke:#000000;stroke-width:1px;stroke-linecap:butt;stroke-linejoin:miter;stroke-opacity:1"
         d="M 114.0866,342.14739 C 108.02496,349.17853 98.03749,380.38351 98.669494,396.62117 C 99.271571,412.08993 103.51262,429.22647 107.91976,435.67784 C 112.08263,441.77165 122.30906,459.31741 132.58713,459.31741 C 142.86521,459.31741 151.24637,475.29184 153.56901,475.76233 C 155.92566,476.23971 155.84407,459.44758 161.79147,447.65885 C 167.58423,436.17662 174.72723,421.09081 182.94969,413.06608 C 190.80832,405.39643 193.7568,389.7792 190.87111,386.89352 C 187.60178,383.62419 163.29665,351.82338 159.31012,339.24031 C 155.3843,326.84888 142.3741,328.33434 135.67055,329.8137 C 128.84999,331.31888 119.82771,335.48804 114.0866,342.14739 z "
         id="path1304" />
      <path
         sodipodi:nodetypes="czzzzzzzzz"
         style="fill-rule:evenodd;stroke:#000000;stroke-width:1px;stroke-linecap:butt;stroke-linejoin:miter;stroke-opacity:1"
         d="M 414.72022,359.1062 C 407.55061,360.23204 391.59456,374.00941 385.42772,387.3709 C 379.54571,400.11524 355.1074,406.89924 353.05178,413.06609 C 351.14964,418.7725 378.41705,452.72866 382.34429,454.69228 C 386.45551,456.74789 394.93491,474.99143 393.65017,481.41526 C 392.38134,487.75954 410.54626,478.90668 416.26193,475.76233 C 421.74694,472.74487 435.79028,464.45645 445.04054,449.03934 C 454.51849,433.24273 459.42984,408.44095 457.37422,392.50994 C 455.3622,376.91679 445.09218,365.90096 436.81807,362.2778 C 427.93011,358.38585 422.24426,357.92471 414.72022,359.1062 z "
         id="path1306" />
      <path
         sodipodi:nodetypes="czzzzz"
         style="fill-rule:evenodd;stroke:#000000;stroke-width:1px;stroke-linecap:butt;stroke-linejoin:miter;stroke-opacity:1"
         d="M 275.9725,687.96799 C 262.16388,687.24122 251.88581,685.41361 249.33142,695.44229 C 246.72695,705.66761 256.56703,728.05248 259.03768,730.23279 C 261.13104,732.08014 290.20323,731.89287 292.32299,729.8801 C 294.79364,727.53415 305.74683,702.40895 302.9021,694.31118 C 300.05737,686.21342 290.50594,688.73291 275.9725,687.96799 z "
         id="path1308" />
      <path
         sodipodi:nodetypes="czzzzzzzzszzzszzzcz"
         style="fill-rule:evenodd;stroke:#000000;stroke-width:1px;stroke-linecap:butt;stroke-linejoin:miter;stroke-opacity:1"
         d="M 465.59668,654.60079 C 460.20606,655.16822 448.89888,658.92139 445.55444,662.82324 C 442.47102,666.42056 457.15125,700.94502 446.58224,708.56067 C 436.5948,715.75726 421.55345,730.41757 426.54,733.74195 C 431.16514,736.82537 440.21766,738.82933 447.92622,731.63468 C 455.89585,724.19636 459.53313,722.46631 463.64436,726.57754 C 467.75558,730.68877 463.95035,744.08065 476.65316,743.0136 C 488.63416,742.00718 484.81733,729.85489 489.21485,727.5537 C 493.03169,725.55638 502.45662,749.89893 512.75111,749.58478 C 517.5353,749.43878 523.83753,737.76417 520.35475,733.52601 C 514.83314,726.80683 515.44125,723.86824 518.66857,724.29394 C 521.18017,724.62523 534.60518,748.30913 540.27392,749.45123 C 545.24248,750.45226 549.32645,733.54421 544.29071,729.85871 C 541.58927,727.88161 524.01051,714.116 529.73007,715.69016 C 533.94575,716.85042 553.02538,734.71777 559.14853,735.5393 C 564.55701,736.26495 565.38468,733.73632 559.15315,725.49751 C 553.3153,717.77918 506.69384,693.28338 494.0226,687.20471 C 481.76747,681.32566 491.29186,653.57298 491.29186,653.57298 C 491.29186,653.57298 470.47877,654.08689 465.59668,654.60079 z "
         id="path1314" />
      <path
         sodipodi:nodetypes="czzszzzzzz"
         style="fill-rule:evenodd;stroke:#000000;stroke-width:1px;stroke-linecap:butt;stroke-linejoin:miter;stroke-opacity:1"
         d="M 126.36864,674.67955 C 115.95932,675.91309 80.168964,687.49062 71.946506,697.76869 C 63.724048,708.04676 66.080699,717.59806 80.470001,714.51464 C 87.664652,712.97293 78.33395,704.44362 87.225986,704.50118 C 89.109037,704.51337 86.803321,712.38293 91.463183,714.31603 C 95.495879,715.98896 109.4016,716.90241 109.42718,712.39863 C 109.45276,707.16808 118.82364,702.82417 123.63791,704.91169 C 129.07041,707.26727 124.80449,715.79442 130.97864,715.18976 C 137.87225,714.51463 136.50063,701.91017 142.31478,701.68218 C 148.20228,701.4513 136.83818,673.43887 126.36864,674.67955 z "
         id="path1316" />
      <path
         sodipodi:nodetypes="czzzzzzzzzzzzzzzzczzzzzzz"
         id="path2070"
         d="M 329.92612,763.03445 C 328.64136,767.14568 321.39933,769.35463 324.27318,769.71519 C 327.16956,770.07857 340.54176,770.96656 342.25981,775.88204 C 344.13205,781.23867 349.56604,797.2753 345.85713,798.4938 C 342.2705,799.67213 335.6414,799.45926 334.09969,794.83413 C 332.55798,790.209 329.80143,784.47857 328.27041,782.27244 C 326.90448,780.3042 316.3866,770.83286 315.81203,771.40743 C 315.08526,772.13419 326.83931,781.37787 328.89831,785.64621 C 331.16679,790.34881 331.61836,796.7134 330.95393,800.03551 C 330.21949,803.70769 327.92139,809.79968 325.30098,809.79967 C 322.73147,809.79967 315.62499,803.99621 315.02292,802.09112 C 314.31566,799.8532 317.59244,790.78524 314.50901,786.67401 C 311.42558,782.56278 305.77265,782.56278 305.77265,782.56278 C 305.77265,782.56278 302.30524,788.33978 301.14752,790.84758 C 299.78564,793.79763 297.58672,812.15633 286.48301,811.91763 C 275.74268,811.67894 281.49598,802.42148 282.64699,799.5216 C 283.97584,796.17367 288.53531,782.92893 287.99889,780.50717 C 287.48498,778.18704 288.57939,779.27294 287.82255,776.75932 C 285.78574,778.79614 283.01037,785.19465 276.84353,789.81978 C 270.67669,794.44492 256.89608,804.44228 255.20793,804.66064 C 253.16301,804.92515 249.05178,806.34217 246.72096,804.83698 C 245.38484,803.97415 247.33968,790.70618 249.10344,788.27807 C 250.98422,785.68886 259.83306,778.95476 264.66036,776.39594 C 269.77355,773.68558 289.53059,755.34345 294.71617,753.44662 C 299.7746,751.59631 331.21088,758.92322 329.92612,763.03445 z "
         style="fill-rule:evenodd;stroke:#000000;stroke-width:1px;stroke-linecap:butt;stroke-linejoin:miter;stroke-opacity:1" />
      <path
         id="path2072"
         d="M 182.41914,766.92348 C 182.41914,766.92348 186.05298,771.28409 182.41914,776.00809 C 178.78529,780.7321 173.6979,784.36594 176.2416,795.26748 C 178.78529,806.16903 180.9656,807.98595 185.6896,806.8958 C 190.4136,805.80564 192.59391,802.89856 192.23052,797.08441 C 191.86714,791.27025 191.86714,781.09548 193.68406,784.00256 C 195.50099,786.90964 200.58837,791.63364 201.31514,800.71826 C 202.04191,809.80287 207.1293,818.16072 215.48715,817.79734 C 223.845,817.43395 221.3013,811.25641 219.84776,806.16903 C 218.39422,801.08164 213.30684,790.54348 214.76038,788.72656 C 216.21392,786.90964 223.11823,797.44779 227.47884,803.26195 C 231.83946,809.0761 236.20008,815.61703 244.19454,815.25364 C 252.189,814.89026 255.82285,812.34657 250.73547,803.62533 C 245.64808,794.9041 241.28746,793.45056 235.10992,786.54625 C 228.93238,779.64194 239.47054,789.08994 244.92131,792.72379 C 250.37208,796.35764 262.00039,802.53518 268.9047,800.71826 C 275.80901,798.90133 279.80624,794.17733 271.08501,786.90964 C 262.36378,779.64194 258.00316,778.55179 245.64808,774.55455 C 233.293,770.55732 233.65638,766.92348 230.02254,761.4727 C 226.38869,756.02193 185.6896,761.10932 182.41914,766.92348 z "
         style="fill-rule:evenodd;stroke:#000000;stroke-width:1px;stroke-linecap:butt;stroke-linejoin:miter;stroke-opacity:1" />
    </g>
    <path
       sodipodi:nodetypes="czzzzzz"
       style="fill:#000000;fill-opacity:1;fill-rule:evenodd;stroke:#000000;stroke-width:0.3961187px;stroke-linecap:butt;stroke-linejoin:miter;stroke-opacity:1"
       d="M 291.06995,430.74768 C 292.43949,431.04758 296.46633,433.43406 296.69371,438.76592 C 296.92735,444.24444 299.97701,442.96808 297.04416,445.19305 C 294.01841,447.4885 289.68983,446.88372 287.66154,446.12078 C 285.63326,445.35783 283.76998,443.57672 282.92393,441.62474 C 282.05237,439.61394 282.78316,434.7553 284.09624,433.36304 C 285.47798,431.89797 289.5651,430.41814 291.06995,430.74768 z "
       id="path1310"
       inkscape:export-filename="/home/aecoope/perl/mtn-browse-large.png"
       inkscape:export-xdpi="108.55"
       inkscape:export-ydpi="108.55" />
    <path
       sodipodi:nodetypes="czzzzzz"
       style="fill:#000000;fill-opacity:1;fill-rule:evenodd;stroke:#000000;stroke-width:0.3961187px;stroke-linecap:butt;stroke-linejoin:miter;stroke-opacity:1"
       d="M 347.24588,432.73963 C 345.6282,433.63207 342.759,440.53225 343.15784,443.44149 C 343.55667,446.35073 346.1491,448.53266 349.53918,448.42876 C 352.82955,448.32486 353.97785,445.90155 354.5246,445.10392 C 355.02314,444.37661 356.81789,441.88297 356.31934,438.14251 C 355.83226,434.48798 353.91683,433.08267 352.23131,432.32402 C 350.60964,431.59413 348.94094,431.80452 347.24588,432.73963 z "
       id="path1312"
       inkscape:export-filename="/home/aecoope/perl/mtn-browse-large.png"
       inkscape:export-xdpi="108.55"
       inkscape:export-ydpi="108.55" />
    <path
       sodipodi:nodetypes="czc"
       id="path2058"
       d="M 375.6061,497.66894 C 381.5886,492.26607 392.76148,467.80245 394.2545,463.56475 C 395.82516,459.10671 398.57325,445.91267 401.35335,430.40486"
       style="fill:none;fill-opacity:0.75;fill-rule:evenodd;stroke:#000000;stroke-width:0.3961187px;stroke-linecap:butt;stroke-linejoin:miter;stroke-opacity:1"
       inkscape:export-filename="/home/aecoope/perl/mtn-browse-large.png"
       inkscape:export-xdpi="108.55"
       inkscape:export-ydpi="108.55" />
    <g
       style="fill:#c9b0d7;fill-opacity:1;stroke:none;stroke-opacity:1"
       id="g2074"
       transform="matrix(0.388043,0,0,0.404362,214.135,219.3712)"
       inkscape:export-filename="/home/aecoope/perl/mtn-browse-large.png"
       inkscape:export-xdpi="108.55"
       inkscape:export-ydpi="108.55">
      <path
         sodipodi:nodetypes="czzszz"
         id="path2060"
         d="M 176.30394,524.90389 C 171.84003,522.27646 186.90445,506.14144 199.38422,501.32484 C 210.97458,496.85151 221.14311,494.05562 228.60109,497.06752 C 235.64965,499.91409 225.04915,539.82223 221.96573,546.81028 C 219.14472,553.20362 221.45182,545.92856 208.63449,526.60682 C 195.81715,507.28508 180.39049,527.3092 176.30394,524.90389 z "
         style="fill-rule:evenodd;stroke-width:1px;stroke-linecap:butt;stroke-linejoin:miter" />
      <path
         sodipodi:nodetypes="czzzzzz"
         id="path2062"
         d="M 251.88796,687.52391 C 258.55358,683.41268 296.9297,685.43941 304.39171,687.70025 C 312.07934,690.02945 342.71276,620.48478 340.12811,617.75404 C 337.38277,614.85353 302.33002,653.27217 297.87218,657.27923 C 292.93973,661.7129 263.30967,661.32996 255.99919,656.75021 C 248.19134,651.85887 208.353,617.64395 203.49545,620.66112 C 199.82946,622.93818 244.72432,691.94231 251.88796,687.52391 z "
         style="fill-rule:evenodd;stroke-width:1px;stroke-linecap:butt;stroke-linejoin:miter" />
      <path
         sodipodi:nodetypes="czzzzz"
         id="path2064"
         d="M 327.00347,501.32484 C 322.96643,508.6676 324.38857,545.78248 328.4998,545.25344 C 332.85998,544.69237 330.55541,521.82047 345.0908,521.82047 C 359.62619,521.82047 370.19838,537.61825 369.19889,533.44879 C 368.17108,529.16121 365.4706,522.52585 353.84229,507.99046 C 342.21398,493.45507 331.46739,493.20568 327.00347,501.32484 z "
         style="fill-rule:evenodd;stroke-width:1px;stroke-linecap:butt;stroke-linejoin:miter" />
    </g>
    <path
       sodipodi:nodetypes="czsz"
       id="path2066"
       d="M 272.54708,386.24355 C 275.29884,380.33645 276.6107,371.07328 276.2617,368.55433 C 275.90751,365.99786 275.0016,355.50156 270.42716,354.35364 C 266.12904,353.27505 260.64881,357.90125 258.62211,361.08311"
       style="fill:none;fill-opacity:0.75;fill-rule:evenodd;stroke:#000000;stroke-width:0.3961187px;stroke-linecap:butt;stroke-linejoin:miter;stroke-opacity:1"
       inkscape:export-filename="/home/aecoope/perl/mtn-browse-large.png"
       inkscape:export-xdpi="108.55"
       inkscape:export-ydpi="108.55" />
    <path
       sodipodi:nodetypes="czzzz"
       id="path2068"
       d="M 371.57474,397.20529 C 369.38116,395.54286 367.00057,387.02377 367.18758,383.90588 C 367.38698,380.58104 367.03602,375.75699 369.38116,372.0611 C 371.6825,368.43423 374.65862,366.38956 377.15841,366.24262 C 379.65424,366.09591 381.42877,366.80516 382.90729,368.32064"
       style="fill:none;fill-opacity:0.75;fill-rule:evenodd;stroke:#000000;stroke-width:0.3961187px;stroke-linecap:butt;stroke-linejoin:miter;stroke-opacity:1"
       inkscape:export-filename="/home/aecoope/perl/mtn-browse-large.png"
       inkscape:export-xdpi="108.55"
       inkscape:export-ydpi="108.55" />
    <g
       id="g4206"
       transform="matrix(2.8180673,0,0,2.786832,-600.40965,-408.41851)"
       inkscape:export-filename="/home/aecoope/perl/mtn-browse-large.png"
       inkscape:export-xdpi="108.55"
       inkscape:export-ydpi="108.55">
      <path
         sodipodi:nodetypes="cssscccccsccssssc"
         id="path4039"
         d="M 316.07229,281.98202 C 315.63381,282.03057 315.20936,282.07832 314.769,282.14937 C 300.67765,284.42297 291.09625,297.46399 293.37475,311.26769 C 295.65325,325.07139 308.92741,334.45442 323.01874,332.18083 C 328.3427,331.32182 333.01614,328.93574 336.6557,325.53676 L 366.34973,347.07289 C 369.4708,346.63914 371.67494,344.52641 372.98664,340.70875 L 341.70648,319.33133 L 341.10485,320.038 C 344.10373,315.08859 345.41873,309.1395 344.4105,303.03136 C 342.20321,289.65902 329.66486,280.47692 316.07229,281.98202 z M 316.18848,283.03862 C 329.20684,281.5971 341.24486,290.40242 343.35891,303.20986 C 345.54114,316.43043 335.05166,328.95168 321.55558,331.12925 C 308.05952,333.30679 296.64223,324.33843 294.45998,311.11785 C 292.27775,297.8973 301.45143,285.37851 314.9475,283.20096 C 315.36925,283.1329 315.76853,283.0851 316.18848,283.03862 z "
         style="fill:url(#linearGradient4216);fill-opacity:1;fill-rule:evenodd;stroke-width:0.5;filter:url(#filter4141)" />
      <path
         style="fill:#807d74;fill-opacity:1;fill-rule:evenodd;stroke-width:0.5"
         d="M 344.17328,310.53057 L 373.79046,337.579 C 371.89804,341.45499 369.28988,343.3881 365.98042,343.41755 L 337.96015,316.31927 L 344.17328,310.53057 z "
         id="path852"
         sodipodi:nodetypes="ccccc" />
      <path
         sodipodi:nodetypes="ccc"
         id="path4204"
         d="M 344.98664,308.53682 C 319.4089,335.23039 286.62945,304.61152 303.94656,279.99626 C 281.47224,306.70317 320.99873,339.23619 344.98664,308.53682 z "
         style="opacity:1;fill:#273f57;fill-opacity:0.99607843;fill-rule:nonzero;stroke:none;stroke-width:0.60000002;stroke-linecap:butt;stroke-miterlimit:4;stroke-dasharray:none;stroke-dashoffset:0;stroke-opacity:0.99523806" />
      <path
         style="fill:url(#radialGradient4218);fill-opacity:1;fill-rule:evenodd;stroke:#314e6c;stroke-width:1.13486826;stroke-miterlimit:4;stroke-dasharray:none;stroke-opacity:0.99523806"
         d="M 349.29738,294.36408 C 349.73312,307.6292 338.76175,318.73129 324.80771,319.14553 C 310.85366,319.55977 299.17499,309.13005 298.73924,295.86493 C 298.3035,282.59981 309.27487,271.49773 323.22892,271.0835 C 337.18296,270.66926 348.86162,281.09896 349.29738,294.36408 z "
         id="path853" />
      <path
         style="fill:url(#linearGradient4220);fill-opacity:0.09090905;fill-rule:evenodd;stroke-width:1pt"
         d="M 334.58464,277.67286 C 338.15575,281.95526 334.39477,290.44924 326.18959,296.63266 C 317.98439,302.81608 308.42681,304.35891 304.85568,300.0765 C 301.28457,295.79411 305.04555,287.30011 313.25074,281.11671 C 321.45593,274.93328 331.01352,273.39044 334.58464,277.67286 z "
         id="path863" />
      <path
         style="fill:url(#linearGradient4222);fill-opacity:0.55208333;fill-rule:evenodd;stroke-width:1pt"
         d="M 310.11078,312.32383 C 324.60507,316.63287 341.96694,307.85651 346.53527,294.10669 C 350.95001,306.68197 323.25481,333.63881 310.11078,312.32383 z "
         id="path885"
         sodipodi:nodetypes="ccc" />
      <path
         sodipodi:nodetypes="ccccc"
         id="path1766"
         d="M 339.59269,316.18967 L 344.21509,311.80715 L 372.18661,337.49967 C 373.4197,340.82815 371.74099,343.18126 366.08596,342.37995 L 339.59269,316.18967 z "
         style="fill:url(#linearGradient4224);fill-opacity:0.75;fill-rule:evenodd;stroke:none;stroke-width:1pt;stroke-linecap:butt;stroke-linejoin:miter;stroke-opacity:1" />
      <path
         sodipodi:nodetypes="ccccc"
         id="path4187"
         d="M 338.93805,316.8243 L 343.56045,312.44178 L 371.53197,338.1343 C 372.76506,341.46278 371.08635,343.81589 365.43132,343.01458 L 338.93805,316.8243 z "
         style="fill:url(#linearGradient4226);fill-opacity:1;fill-rule:evenodd;stroke:none;stroke-width:1pt;stroke-linecap:butt;stroke-linejoin:miter;stroke-opacity:1" />
    </g>
  </g>
</svg>
