<?xml version="1.0" encoding="UTF-8" standalone="no"?>
<!-- Created with Inkscape (http://www.inkscape.org/) -->
<svg
   xmlns:dc="http://purl.org/dc/elements/1.1/"
   xmlns:cc="http://web.resource.org/cc/"
   xmlns:rdf="http://www.w3.org/1999/02/22-rdf-syntax-ns#"
   xmlns:svg="http://www.w3.org/2000/svg"
   xmlns="http://www.w3.org/2000/svg"
   xmlns:sodipodi="http://inkscape.sourceforge.net/DTD/sodipodi-0.dtd"
   xmlns:inkscape="http://www.inkscape.org/namespaces/inkscape"
   width="744.09448819"
   height="1052.3622047"
   id="svg2"
   sodipodi:version="0.32"
   inkscape:version="0.42"
   sodipodi:docbase="/home/christof/Desktop"
   sodipodi:docname="PartialPull.svg"
   inkscape:export-filename="/home/christof/Desktop/PartialPull.png"
   inkscape:export-xdpi="307.57999"
   inkscape:export-ydpi="307.57999">
  <defs
     id="defs4" />
  <sodipodi:namedview
     id="base"
     pagecolor="#ffffff"
     bordercolor="#666666"
     borderopacity="1.0"
     inkscape:pageopacity="0.0"
     inkscape:pageshadow="2"
     inkscape:zoom="4.3965135"
     inkscape:cx="352.17277"
     inkscape:cy="754.11112"
     inkscape:document-units="px"
     inkscape:current-layer="layer1"
     inkscape:window-width="1024"
     inkscape:window-height="700"
     inkscape:window-x="0"
     inkscape:window-y="25" />
  <metadata
     id="metadata7">
    <rdf:RDF>
      <cc:Work
         rdf:about="">
        <dc:format>image/svg+xml</dc:format>
        <dc:type
           rdf:resource="http://purl.org/dc/dcmitype/StillImage" />
      </cc:Work>
    </rdf:RDF>
  </metadata>
  <g
     inkscape:label="Layer 1"
     inkscape:groupmode="layer"
     id="layer1">
    <path
       sodipodi:type="arc"
       style="fill:none;stroke:#000000;stroke-opacity:1.0000000"
       id="path1306"
       sodipodi:cx="324.28571"
       sodipodi:cy="266.64789"
       sodipodi:rx="4.6708422"
       sodipodi:ry="4.6708422"
       d="M 328.95655 266.64789 A 4.6708422 4.6708422 0 1 1  319.61486,266.64789 A 4.6708422 4.6708422 0 1 1  328.95655 266.64789 z" />
    <path
       sodipodi:type="arc"
       style="fill:none;stroke:#000000;stroke-opacity:1.0000000"
       id="path1308"
       sodipodi:cx="324.28571"
       sodipodi:cy="266.64789"
       sodipodi:rx="4.6708422"
       sodipodi:ry="4.6708422"
       d="M 328.95655 266.64789 A 4.6708422 4.6708422 0 1 1  319.61486,266.64789 A 4.6708422 4.6708422 0 1 1  328.95655 266.64789 z"
       transform="translate(-48.44562,-0.439240)" />
    <path
       sodipodi:type="arc"
       style="fill:none;stroke:#000000;stroke-opacity:1.0000000"
       id="path1310"
       sodipodi:cx="324.28571"
       sodipodi:cy="266.64789"
       sodipodi:rx="4.6708422"
       sodipodi:ry="4.6708422"
       d="M 328.95655 266.64789 A 4.6708422 4.6708422 0 1 1  319.61486,266.64789 A 4.6708422 4.6708422 0 1 1  328.95655 266.64789 z"
       transform="translate(52.09597,-24.18338)" />
    <path
       style="fill:none;fill-opacity:1.0000000;fill-rule:evenodd;stroke:#ffc000;stroke-width:1.0000000px;stroke-linecap:butt;stroke-linejoin:miter;stroke-opacity:1.0000000"
       d="M 259.03928,284.29373 C 267.52291,282.60017 274.59550,288.44491 282.29548,290.67099 C 289.79663,292.83958 295.96890,299.30377 304.30552,299.80076 C 311.73084,300.24343 318.87409,303.34744 325.77722,306.29706 C 332.66922,309.24193 337.89129,300.54926 343.47859,297.08792 C 349.51039,293.35122 356.21069,290.30032 363.61978,291.01754 C 372.60214,291.88705 380.83491,288.08063 390.02748,288.08158 C 398.54493,288.08247 435.65156,297.91173 445.30625,293.72023"
       id="path4254"
       sodipodi:nodetypes="csssssss" />
    <path
       sodipodi:type="arc"
       style="fill:#008000;stroke:#000000;stroke-opacity:1.0000000;fill-opacity:1.0000000"
       id="path1312"
       sodipodi:cx="324.28571"
       sodipodi:cy="266.64789"
       sodipodi:rx="4.6708422"
       sodipodi:ry="4.6708422"
       d="M 328.95655 266.64789 A 4.6708422 4.6708422 0 1 1  319.61486,266.64789 A 4.6708422 4.6708422 0 1 1  328.95655 266.64789 z"
       transform="translate(-45.10660,39.99999)" />
    <path
       sodipodi:type="arc"
       style="fill:#008000;fill-opacity:1.0000000;stroke:#000000;stroke-opacity:1.0000000"
       id="path2041"
       sodipodi:cx="324.28571"
       sodipodi:cy="266.64789"
       sodipodi:rx="4.6708422"
       sodipodi:ry="4.6708422"
       d="M 328.95655 266.64789 A 4.6708422 4.6708422 0 1 1  319.61486,266.64789 A 4.6708422 4.6708422 0 1 1  328.95655 266.64789 z"
       transform="translate(36.14287,37.95948)" />
    <path
       sodipodi:type="arc"
       style="fill:#000000;fill-opacity:1.0000000;stroke:#000000;stroke-opacity:1.0000000"
       id="path2043"
       sodipodi:cx="324.28571"
       sodipodi:cy="266.64789"
       sodipodi:rx="4.6708422"
       sodipodi:ry="4.6708422"
       d="M 328.95655 266.64789 A 4.6708422 4.6708422 0 1 1  319.61486,266.64789 A 4.6708422 4.6708422 0 1 1  328.95655 266.64789 z"
       transform="translate(-46.77611,64.85714)" />
    <path
       sodipodi:type="arc"
       style="fill:#000000;fill-opacity:1.0000000;stroke:#000000;stroke-opacity:1.0000000"
       id="path2771"
       sodipodi:cx="324.28571"
       sodipodi:cy="266.64789"
       sodipodi:rx="4.6708422"
       sodipodi:ry="4.6708422"
       d="M 328.95655 266.64789 A 4.6708422 4.6708422 0 1 1  319.61486,266.64789 A 4.6708422 4.6708422 0 1 1  328.95655 266.64789 z"
       transform="translate(35.21537,66.52665)" />
    <path
       sodipodi:type="arc"
       style="fill:#000000;fill-opacity:1.0000000;stroke:#000000;stroke-opacity:1.0000000"
       id="path2773"
       sodipodi:cx="324.28571"
       sodipodi:cy="266.64789"
       sodipodi:rx="4.6708422"
       sodipodi:ry="4.6708422"
       d="M 328.95655 266.64789 A 4.6708422 4.6708422 0 1 1  319.61486,266.64789 A 4.6708422 4.6708422 0 1 1  328.95655 266.64789 z"
       transform="translate(59.88701,65.22814)" />
    <path
       sodipodi:type="arc"
       style="fill:#ffc7c7;fill-opacity:1.0000000;stroke:#000000;stroke-opacity:1.0000000"
       id="path2775"
       sodipodi:cx="324.28571"
       sodipodi:cy="266.64789"
       sodipodi:rx="4.6708422"
       sodipodi:ry="4.6708422"
       d="M 328.95655 266.64789 A 4.6708422 4.6708422 0 1 1  319.61486,266.64789 A 4.6708422 4.6708422 0 1 1  328.95655 266.64789 z"
       transform="translate(-23.40297,18.29637)" />
    <path
       sodipodi:type="arc"
       style="fill:#ffc7c7;fill-opacity:1.0000000;stroke:#000000;stroke-opacity:1.0000000"
       id="path3503"
       sodipodi:cx="324.28571"
       sodipodi:cy="266.64789"
       sodipodi:rx="4.6708422"
       sodipodi:ry="4.6708422"
       d="M 328.95655 266.64789 A 4.6708422 4.6708422 0 1 1  319.61486,266.64789 A 4.6708422 4.6708422 0 1 1  328.95655 266.64789 z"
       transform="translate(34.47337,17.18336)" />
    <path
       id="path3505"
       style="fill:none;fill-opacity:0.75000000;fill-rule:evenodd;stroke:#000000;stroke-width:1.0000000px;stroke-linecap:butt;stroke-linejoin:miter;stroke-opacity:1.0000000"
       d="M 280.10662,269.91867 C 295.89018,281.41974 295.89018,281.41974 295.89018,281.41974 M 289.75267,281.41589 L 295.87421,281.41974 L 295.87421,275.99671"
       sodipodi:nodetypes="ccccc" />
    <path
       id="path4238"
       style="fill:none;fill-opacity:0.75000000;fill-rule:evenodd;stroke:#000000;stroke-width:1.0000000px;stroke-linecap:butt;stroke-linejoin:miter;stroke-opacity:1.0000000"
       d="M 297.80899,289.58467 C 282.02543,301.08574 282.02543,301.08574 282.02543,301.08574 M 288.16294,301.08189 L 282.04140,301.08574 L 282.04140,295.66271"
       sodipodi:nodetypes="ccccc" />
    <path
       id="path4240"
       style="fill:none;fill-opacity:0.75000000;fill-rule:evenodd;stroke:#000000;stroke-width:1.0000000px;stroke-linecap:butt;stroke-linejoin:miter;stroke-opacity:1.0000000"
       d="M 319.71927,270.62499 C 303.93571,282.12606 306.38659,281.37194 306.38659,281.37194 M 312.52410,281.36809 L 306.40256,281.37194 L 306.40256,275.94891"
       sodipodi:nodetypes="ccccc" />
    <path
       id="path4242"
       style="fill:none;fill-opacity:0.75000000;fill-rule:evenodd;stroke:#000000;stroke-width:1.0000000px;stroke-linecap:butt;stroke-linejoin:miter;stroke-opacity:1.0000000"
       d="M 329.76858,269.48772 L 352.83064,281.89860 M 346.69313,281.89475 L 352.81467,281.89860 L 352.81467,276.47557"
       sodipodi:nodetypes="ccccc" />
    <path
       id="path4244"
       style="fill:none;fill-opacity:0.75000000;fill-rule:evenodd;stroke:#000000;stroke-width:1.0000000px;stroke-linecap:butt;stroke-linejoin:miter;stroke-opacity:1.0000000"
       d="M 373.67979,248.90959 L 360.82131,278.20304 M 366.61125,276.16692 L 360.83639,278.19774 L 359.04051,273.08070"
       sodipodi:nodetypes="ccccc" />
    <path
       id="path4246"
       style="fill:none;fill-opacity:0.75000000;fill-rule:evenodd;stroke:#000000;stroke-width:1.0000000px;stroke-linecap:butt;stroke-linejoin:miter;stroke-opacity:1.0000000"
       d="M 359.60518,310.91254 L 359.23876,326.84520 M 363.78233,322.71905 L 359.25060,326.83446 L 355.60731,322.81753"
       sodipodi:nodetypes="ccccc" />
    <path
       id="path4248"
       style="fill:none;fill-opacity:0.75000000;fill-rule:evenodd;stroke:#000000;stroke-width:1.0000000px;stroke-linecap:butt;stroke-linejoin:miter;stroke-opacity:1.0000000"
       d="M 365.09030,309.91901 L 378.44241,326.15838 M 379.28009,320.07830 L 378.44460,326.14255 L 373.07279,325.39903"
       sodipodi:nodetypes="ccccc" />
    <path
       id="path4250"
       style="fill:none;fill-opacity:0.75000000;fill-rule:evenodd;stroke:#000000;stroke-width:1.0000000px;stroke-linecap:butt;stroke-linejoin:miter;stroke-opacity:1.0000000"
       d="M 278.38850,312.61350 L 278.13214,325.33236 M 282.76406,321.30564 L 278.14421,325.32189 L 274.58882,321.22695"
       sodipodi:nodetypes="ccccc" />
    <path
       id="path4252"
       style="fill:none;fill-opacity:0.75000000;fill-rule:evenodd;stroke:#000000;stroke-width:1.0000000px;stroke-linecap:butt;stroke-linejoin:miter;stroke-opacity:1.0000000"
       d="M 359.61623,289.98937 L 359.60409,298.37432 M 364.00139,294.09264 L 359.61554,298.36318 L 355.83474,294.47541"
       sodipodi:nodetypes="ccccc" />
    <flowRoot
       xml:space="preserve"
       id="flowRoot4990"
       transform="translate(-76.42819,34.84499)"
       style="fill:#ffc000;fill-opacity:1.0000000;stroke:#000000;stroke-opacity:1.0000000;stroke-width:0.20000000;stroke-miterlimit:4.0000000;stroke-dasharray:none"><flowRegion
         id="flowRegion4992"><rect
           id="rect4994"
           width="50.337330"
           height="19.041462"
           x="377.81274"
           y="257.33405"
           style="fill:#ffc000;fill-opacity:1.0000000;stroke:#000000;stroke-opacity:1.0000000;stroke-width:0.20000000;stroke-miterlimit:4.0000000;stroke-dasharray:none" /></flowRegion><flowPara
         id="flowPara4996">Horizon</flowPara></flowRoot>    <flowRoot
       xml:space="preserve"
       id="flowRoot5724"
       style="font-size:8.0000000px;font-style:normal;font-variant:normal;font-weight:normal;font-stretch:normal;text-align:center;line-height:125.00000%;writing-mode:lr-tb;text-anchor:middle;fill:#008000;fill-opacity:1.0000000;font-family:Bitstream Vera Sans;stroke:#000000;stroke-opacity:1.0000000;stroke-width:0.15000000;stroke-miterlimit:4.0000000;stroke-dasharray:none"
       transform="translate(-14.00000,-8.000000)"><flowRegion
         id="flowRegion5726"><rect
           id="rect5728"
           width="70.321442"
           height="22.812048"
           x="375.17334"
           y="302.01550"
           style="font-size:8.0000000;font-style:normal;font-variant:normal;font-weight:normal;font-stretch:normal;text-align:center;line-height:125%;writing-mode:lr;text-anchor:middle;font-family:Bitstream Vera Sans;fill:#008000;fill-opacity:1.0000000;stroke:#000000;stroke-opacity:1.0000000;stroke-width:0.15000000;stroke-miterlimit:4.0000000;stroke-dasharray:none" /></flowRegion><flowPara
         id="flowPara5732">first fully available node</flowPara></flowRoot>    <flowRoot
       xml:space="preserve"
       id="flowRoot7912"
       style="font-size:8.0000000px;font-style:normal;font-variant:normal;font-weight:normal;font-stretch:normal;text-align:start;line-height:125.00000%;writing-mode:lr-tb;text-anchor:start;fill:#ffc7c7;fill-opacity:1.0000000;font-family:Bitstream Vera Sans;stroke:#000000;stroke-opacity:1.0000000;stroke-width:0.15000000;stroke-miterlimit:4.0000000;stroke-dasharray:none"
       transform="translate(-19.04146,23.56616)"><flowRegion
         id="flowRegion7914"><rect
           id="rect7916"
           width="59.386734"
           height="16.590580"
           x="385.73099"
           y="253.56346"
           style="font-family:Bitstream Vera Sans;font-weight:normal;font-style:normal;font-stretch:normal;font-variant:normal;font-size:8.0000000;text-anchor:start;text-align:start;writing-mode:lr;line-height:125%;fill:#ffc7c7;fill-opacity:1.0000000;stroke:#000000;stroke-opacity:1.0000000;stroke-width:0.15000000;stroke-miterlimit:4.0000000;stroke-dasharray:none" /></flowRegion><flowPara
         id="flowPara7918">fake node</flowPara></flowRoot>    <path
       sodipodi:type="arc"
       style="fill:#000000;fill-opacity:1.0000000;stroke:#000000;stroke-opacity:1.0000000"
       id="path10831"
       sodipodi:cx="324.28571"
       sodipodi:cy="266.64789"
       sodipodi:rx="4.6708422"
       sodipodi:ry="4.6708422"
       d="M 328.95655 266.64789 A 4.6708422 4.6708422 0 1 1  319.61486,266.64789 A 4.6708422 4.6708422 0 1 1  328.95655 266.64789 z"
       transform="translate(-10.76455,87.38972)" />
    <path
       id="path10833"
       style="fill:none;fill-opacity:0.75000000;fill-rule:evenodd;stroke:#000000;stroke-width:1.0000000px;stroke-linecap:butt;stroke-linejoin:miter;stroke-opacity:1.0000000"
       d="M 282.04204,336.28747 L 307.70464,351.88968 M 306.57275,345.85744 L 307.70170,351.87397 L 302.37107,352.87075"
       sodipodi:nodetypes="ccccc" />
    <path
       id="path10835"
       style="fill:none;fill-opacity:0.75000000;fill-rule:evenodd;stroke:#000000;stroke-width:1.0000000px;stroke-linecap:butt;stroke-linejoin:miter;stroke-opacity:1.0000000"
       d="M 353.71726,336.50900 L 319.31100,351.55364 M 325.02906,353.78362 L 319.32588,351.55946 L 321.29942,346.50828"
       sodipodi:nodetypes="ccccc" />
  </g>
</svg>
